<svg width="62" height="96" xmlns="http://www.w3.org/2000/svg" xmlns:xlink="http://www.w3.org/1999/xlink" overflow="hidden"><defs><clipPath id="clip0"><rect x="751" y="573" width="62" height="96"/></clipPath></defs><g clip-path="url(#clip0)" transform="translate(-751 -573)"><path d="M7.0351 50.8831 81.5833 50.8831 72.7133 59.753C71.5568 60.9095 71.5568 62.7846 72.7133 63.9412 73.8699 65.0977 75.745 65.0977 76.9015 63.9412L90.852 49.9866C92.0086 48.8851 92.0532 47.0547 90.9518 45.8982 90.9193 45.8642 90.886 45.8309 90.852 45.7985L76.8985 31.8479C75.797 30.6914 73.9666 30.6467 72.8101 31.7482 72.7761 31.7806 72.7428 31.8139 72.7103 31.8479 71.5538 32.9494 71.5091 34.7798 72.6106 35.9364 72.643 35.9704 72.6763 36.0037 72.7103 36.0361L81.5803 44.911 7.0351 44.911C5.38293 44.911 4.04356 46.2503 4.04356 47.9025 4.04356 49.5547 5.38293 50.8941 7.0351 50.8941Z" fill="#3087FF" transform="matrix(1 0 0 1.00283 717.271 573)"/></g></svg>