<svg width="96" height="96" xmlns="http://www.w3.org/2000/svg" xmlns:xlink="http://www.w3.org/1999/xlink" overflow="hidden"><defs><clipPath id="clip0"><rect x="564" y="463" width="96" height="96"/></clipPath></defs><g clip-path="url(#clip0)" transform="translate(-564 -463)"><path d="M594.005 551 630.005 551 630.005 478 594.005 478ZM596.005 480 628.005 480 628.005 549 596.005 549Z"/><path d="M636.005 548.999 636.005 471.999 588 471.999 588 548.999 574.005 548.999 574.005 550.999 590 550.999 590 473.999 634.005 473.999 634.005 550.999 650.005 550.999 650.005 548.999 636.005 548.999Z"/><path d="M623.512 512.172C621.953 511.618 620.241 512.433 619.687 513.991 619.686 513.994 619.685 513.997 619.684 514L614 514 614 516 619.684 516C620.236 517.562 621.95 518.381 623.512 517.829 625.074 517.277 625.893 515.563 625.341 514.001 625.039 513.146 624.367 512.474 623.512 512.172ZM622.518 516C621.966 516 621.518 515.552 621.518 515 621.518 514.448 621.966 514 622.518 514 623.07 514 623.518 514.448 623.518 515 623.518 515.552 623.07 516 622.518 516Z"/></g></svg>