<svg width="96" height="96" xmlns="http://www.w3.org/2000/svg" xmlns:xlink="http://www.w3.org/1999/xlink" overflow="hidden"><defs><clipPath id="clip0"><rect x="736" y="360" width="96" height="96"/></clipPath></defs><g clip-path="url(#clip0)" transform="translate(-736 -360)"><path d="M783.933 374C776.994 373.992 770.506 377.442 766.633 383.2 762.739 388.945 761.917 396.237 764.433 402.705L773.933 423.711 782.133 440.911C782.644 441.905 783.864 442.297 784.859 441.785 785.234 441.592 785.54 441.287 785.733 440.911L793.933 423.711 803.433 402.705C805.948 396.238 805.125 388.949 801.233 383.205 797.361 377.445 790.873 373.993 783.933 374ZM801.587 401.938 792.128 422.853 783.946 440.019 783.919 440.019 775.754 422.89 766.278 401.938C764.02 396.09 764.773 389.506 768.292 384.318 774.116 375.68 785.841 373.399 794.479 379.223 796.493 380.582 798.227 382.316 799.583 384.332 803.096 389.518 803.844 396.095 801.587 401.938Z"/><path d="M783.933 386C778.962 386 774.933 390.029 774.933 395 774.933 399.971 778.962 404 783.933 404 788.904 404 792.933 399.971 792.933 395 792.953 390.049 788.956 386.02 784.005 386 783.981 386 783.957 386 783.933 386ZM783.933 402.005C780.067 402.005 776.933 398.871 776.933 395.005 776.933 391.139 780.067 388.005 783.933 388.005 787.799 388.005 790.933 391.139 790.933 395.005 790.975 398.83 787.908 401.966 784.083 402.008 784.033 402.008 783.983 402.008 783.933 402.008Z"/></g></svg>