<svg width="96" height="96" xmlns="http://www.w3.org/2000/svg" xmlns:xlink="http://www.w3.org/1999/xlink" overflow="hidden"><defs><clipPath id="clip0"><rect x="430" y="296" width="96" height="96"/></clipPath></defs><g clip-path="url(#clip0)" transform="translate(-430 -296)"><path d="M478 348.09C470.901 348.06 465.122 353.791 465.092 360.89 465.062 367.989 470.793 373.768 477.892 373.798 484.991 373.828 490.77 368.097 490.8 360.998 490.8 360.995 490.8 360.993 490.8 360.99 490.846 353.911 485.145 348.136 478.066 348.09 478.044 348.09 478.022 348.09 478 348.09ZM478 371.8C472.006 371.83 467.122 366.994 467.092 361 467.062 355.006 471.898 350.122 477.892 350.092 483.887 350.062 488.77 354.898 488.8 360.892 488.8 360.928 488.8 360.964 488.8 361 488.765 366.95 483.95 371.765 478 371.8Z"/><path d="M493.669 344.171 507.638 312.69 501.982 304 454.022 304 448.367 312.69 462.336 344.171C453.036 352.823 452.511 367.377 461.163 376.677 469.816 385.977 484.369 386.502 493.669 377.849 502.969 369.197 503.494 354.644 494.842 345.344 494.465 344.939 494.074 344.548 493.669 344.171ZM505.369 312.871 492.08 342.82C489.443 340.768 486.388 339.318 483.131 338.571L490.513 321.9 497.764 306 500.9 306ZM474.9 338.2 467.312 321.068 465.912 318 490.092 318 488.692 321.078 481.106 338.2C479.047 337.913 476.958 337.913 474.899 338.2ZM491 316 465 316 460.438 306 495.566 306ZM450.635 312.871 455.107 306 458.24 306 465.487 321.891 472.874 338.574C469.617 339.321 466.562 340.771 463.924 342.823ZM478 382C466.399 382.003 456.991 372.601 456.988 361 456.985 349.399 466.387 339.991 477.988 339.988 489.589 339.985 498.997 349.387 499 360.988 499 360.99 499 360.992 499 360.994 498.988 372.588 489.594 381.985 478 382Z"/></g></svg>