<svg width="96" height="96" xmlns="http://www.w3.org/2000/svg" xmlns:xlink="http://www.w3.org/1999/xlink" overflow="hidden"><defs><clipPath id="clip0"><rect x="1001" y="335" width="96" height="96"/></clipPath></defs><g clip-path="url(#clip0)" transform="translate(-1001 -335)"><path d="M1035.08 386.423 1028.21 386.423 1028.21 379.6C1028.74 379.936 1029.36 380.114 1029.98 380.114L1036.34 380.114C1038.07 380.134 1039.55 378.855 1039.77 377.136 1039.96 375.314 1038.63 373.685 1036.81 373.497 1036.7 373.486 1036.58 373.48 1036.47 373.48L1031.07 373.48 1028.26 371.418C1027.73 371.016 1027.23 370.587 1026.74 370.133L1026.35 369.782C1025.17 368.729 1023.6 368.226 1022.02 368.4 1019.12 368.753 1016.95 371.242 1017.01 374.165L1017.01 387.45C1017.01 390.561 1019.53 393.082 1022.64 393.085L1031.77 393.085 1031.77 403.742C1031.74 405.476 1033.02 406.951 1034.74 407.174 1034.85 407.185 1034.96 407.19 1035.07 407.19 1036.91 407.196 1038.39 405.717 1038.4 403.887 1038.4 403.883 1038.4 403.878 1038.4 403.874L1038.4 389.74C1038.4 387.908 1036.91 386.424 1035.08 386.423ZM1025.9 375.408C1025.46 375.08 1024.83 375.175 1024.5 375.62 1024.17 376.064 1024.27 376.69 1024.71 377.018L1026.21 378.118 1026.21 388.418 1035.09 388.418C1035.82 388.421 1036.4 389.013 1036.4 389.74L1036.4 403.874C1036.4 404.601 1035.81 405.191 1035.09 405.191 1035.04 405.191 1034.99 405.189 1034.94 405.184 1034.24 405.071 1033.74 404.451 1033.77 403.742L1033.77 391.085 1022.64 391.085C1020.63 391.082 1019.01 389.456 1019.01 387.45L1019.01 374.143C1018.97 372.242 1020.37 370.619 1022.26 370.381 1023.26 370.271 1024.27 370.594 1025.02 371.269L1025.4 371.611C1025.93 372.111 1026.49 372.583 1027.08 373.026L1030.42 375.475 1036.47 375.475C1037.2 375.475 1037.79 376.065 1037.79 376.793 1037.79 376.839 1037.79 376.886 1037.78 376.932 1037.67 377.633 1037.05 378.139 1036.34 378.109L1029.99 378.109C1029.71 378.108 1029.43 378.02 1029.2 377.856Z"/><path d="M1022.01 367.2C1024.77 367.2 1027.01 364.961 1027.01 362.2 1027.01 359.439 1024.77 357.2 1022.01 357.2 1019.24 357.2 1017.01 359.439 1017.01 362.2 1017.01 364.961 1019.24 367.2 1022.01 367.2ZM1022.01 359.2C1023.66 359.2 1025.01 360.543 1025.01 362.2 1025.01 363.857 1023.66 365.2 1022.01 365.2 1020.35 365.2 1019.01 363.857 1019.01 362.2 1019.01 360.543 1020.35 359.2 1022.01 359.2Z"/><path d="M1029 396 1022 396C1017.58 395.995 1014.01 392.416 1014 388L1014 375C1014 374.448 1013.55 374 1013 374 1012.45 374 1012 374.448 1012 375L1012 388C1012.01 392.75 1015.35 396.844 1020 397.8L1020 406 1015 406 1015 408 1027 408 1027 406 1022 406 1022 398 1029 398C1029.55 398 1030 397.552 1030 397 1030 396.448 1029.55 396 1029 396Z"/><path d="M1050 384 1066 384C1066.55 384 1067 383.552 1067 383 1067 382.448 1066.55 382 1066 382L1032 382C1031.45 382 1031 382.448 1031 383 1031 383.552 1031.45 384 1032 384L1048 384 1048 406 1041 406 1041 408 1057 408 1057 406 1050 406Z"/><path d="M1081 387.45 1081 374.178C1081.06 371.244 1078.88 368.745 1075.97 368.393 1074.4 368.225 1072.83 368.727 1071.65 369.776L1071.26 370.128C1070.78 370.582 1070.27 371.011 1069.74 371.413L1066.93 373.475 1061.53 373.475C1059.7 373.475 1058.21 374.961 1058.21 376.794 1058.21 376.906 1058.22 377.019 1058.23 377.131 1058.46 378.85 1059.93 380.13 1061.66 380.109L1068.02 380.109C1068.65 380.111 1069.27 379.934 1069.8 379.6L1069.8 386.428 1062.93 386.428C1061.1 386.43 1059.61 387.914 1059.61 389.745L1059.61 403.874C1059.61 405.705 1061.09 407.19 1062.92 407.19 1062.93 407.19 1062.93 407.19 1062.93 407.19 1063.04 407.19 1063.15 407.19 1063.27 407.174 1064.98 406.951 1066.26 405.475 1066.24 403.742L1066.24 393.085 1075.37 393.085C1078.48 393.08 1081 390.559 1081 387.45ZM1068.8 377.856C1068.57 378.02 1068.3 378.108 1068.02 378.109L1061.67 378.109C1060.96 378.137 1060.34 377.632 1060.23 376.932 1060.15 376.209 1060.67 375.56 1061.4 375.482 1061.44 375.478 1061.49 375.475 1061.54 375.475L1067.59 375.475 1070.93 373.026C1071.51 372.584 1072.07 372.111 1072.61 371.611L1072.99 371.268C1073.74 370.597 1074.74 370.274 1075.74 370.379 1077.63 370.615 1079.04 372.249 1079 374.16L1079 387.45C1079 389.456 1077.37 391.082 1075.37 391.085L1064.24 391.085 1064.24 403.742C1064.27 404.452 1063.77 405.072 1063.06 405.184 1062.69 405.227 1062.32 405.105 1062.04 404.851 1061.77 404.602 1061.61 404.247 1061.61 403.874L1061.61 389.74C1061.61 389.013 1062.2 388.424 1062.93 388.423L1071.8 388.423 1071.8 378.123 1073.3 377.023C1073.74 376.695 1073.84 376.069 1073.51 375.624 1073.18 375.179 1072.56 375.085 1072.11 375.413Z"/><path d="M1076 367.2C1078.76 367.2 1081 364.961 1081 362.2 1081 359.439 1078.76 357.2 1076 357.2 1073.24 357.2 1071 359.439 1071 362.2 1071 364.961 1073.24 367.2 1076 367.2ZM1076 359.2C1077.66 359.2 1079 360.543 1079 362.2 1079 363.857 1077.66 365.2 1076 365.2 1074.34 365.2 1073 363.857 1073 362.2 1073 360.543 1074.34 359.2 1076 359.2Z"/><path d="M1085 374C1084.45 374 1084 374.448 1084 375L1084 388C1083.99 392.416 1080.42 395.995 1076 396L1069 396C1068.45 396 1068 396.448 1068 397 1068 397.552 1068.45 398 1069 398L1076 398 1076 406 1071 406 1071 408 1083 408 1083 406 1078 406 1078 397.8C1082.65 396.844 1085.99 392.75 1086 388L1086 375C1086 374.448 1085.55 374 1085 374Z"/></g></svg>