<svg width="96" height="96" xmlns="http://www.w3.org/2000/svg" xmlns:xlink="http://www.w3.org/1999/xlink" overflow="hidden"><defs><clipPath id="clip0"><rect x="841" y="431" width="96" height="96"/></clipPath></defs><g clip-path="url(#clip0)" transform="translate(-841 -431)"><path d="M912 435 866 435C864.9 435 864 435.9 864 437L864 521C864 522.1 864.9 523 866 523L912 523C913.1 523 914 522.1 914 521L914 437C914 435.9 913.1 435 912 435ZM912 437 912 445 866 445 866 437 912 437ZM912 447 912 511 866 511 866 447 912 447ZM866 521 866 513 912 513 912 521 866 521Z"/><path d="M884 442 894 442C894.6 442 895 441.6 895 441 895 440.4 894.6 440 894 440L884 440C883.4 440 883 440.4 883 441 883 441.6 883.4 442 884 442Z"/><path d="M878 487C873.6 487 870 490.6 869.9 495 869.8 499.4 873.5 503 877.9 503.1 882.3 503.2 885.9 499.5 886 495.1 886 494.1 885.8 493.2 885.5 492.3L893.9 487.2C896.8 490.6 901.8 491 905.2 488.1 908.6 485.2 909 480.2 906.1 476.8 903.3 473.6 898.5 473.1 895.1 475.6L888.8 468.4C891.8 465.2 891.6 460.1 888.4 457.1 885.2 454.1 880.1 454.3 877.1 457.5 874.1 460.7 874.3 465.8 877.5 468.8 878.4 469.7 879.6 470.3 880.8 470.7L878.1 487C878.1 487 878 487 878 487ZM874.7 500C874.9 498.2 876.5 496.9 878.3 497.1 879.8 497.3 881.1 498.5 881.2 500 879.3 501.3 876.7 501.3 874.7 500ZM876.8 493.9C876.8 493.3 877.3 492.7 878 492.7 878.6 492.7 879.2 493.2 879.2 493.9 879.2 494.5 878.7 495.1 878 495.1 877.4 495.1 876.8 494.6 876.8 493.9L876.8 493.9ZM882.9 498.4C882.4 497.3 881.6 496.3 880.5 495.7 881.5 494.3 881.2 492.3 879.8 491.3 878.4 490.3 876.4 490.6 875.4 492 874.6 493.1 874.6 494.6 875.4 495.7 874.3 496.3 873.5 497.2 873 498.4 871.1 495.7 871.8 491.9 874.5 490 877.2 488.1 881 488.8 882.9 491.5 884.3 493.4 884.3 496 883.1 498 883.1 498.2 882.9 498.4 882.9 498.4ZM896.7 487C896.9 485.2 898.5 483.9 900.3 484.1 901.8 484.3 903.1 485.5 903.2 487 901.3 488.3 898.7 488.3 896.7 487ZM898.8 480.9C898.8 480.3 899.3 479.7 900 479.7 900.6 479.7 901.2 480.2 901.2 480.9 901.2 481.5 900.7 482.1 900 482.1 899.4 482.1 898.8 481.6 898.8 480.9L898.8 480.9ZM900 476C903.3 476 906 478.7 906 482 906 483.2 905.6 484.4 904.9 485.4 904.4 484.3 903.6 483.3 902.5 482.7 903.5 481.3 903.2 479.3 901.8 478.3 900.4 477.3 898.4 477.6 897.4 479 896.6 480.1 896.6 481.6 897.4 482.7 896.3 483.3 895.5 484.2 895 485.4 893.1 482.7 893.8 478.9 896.5 477.1 897.6 476.4 898.8 476 900 476ZM881.8 461.9C881.8 461.3 882.3 460.7 883 460.7 883.7 460.7 884.2 461.2 884.2 461.9 884.2 462.5 883.7 463.1 883 463.1 882.4 463.1 881.8 462.6 881.8 461.9ZM883 465.1C884.7 465.1 886.1 466.4 886.3 468 884.3 469.3 881.7 469.3 879.8 468 879.9 466.4 881.3 465.1 883 465.1ZM877 463C877 459.7 879.7 457 883 457 886.3 457 889 459.7 889 463 889 464.2 888.6 465.4 887.9 466.4 887.4 465.3 886.6 464.3 885.5 463.7 886.5 462.3 886.2 460.3 884.8 459.3 883.4 458.3 881.4 458.6 880.4 460 879.6 461.1 879.6 462.6 880.4 463.7 879.3 464.3 878.5 465.2 878 466.4 877.4 465.4 877 464.2 877 463ZM882.8 471C882.9 471 882.9 471 883 471 884.5 471 886 470.6 887.3 469.7L893.7 477C891.8 479.4 891.4 482.7 892.8 485.5L884.6 490.4C883.5 488.8 882 487.7 880.1 487.2L882.8 471Z"/></g></svg>