<svg width="96" height="96" xmlns="http://www.w3.org/2000/svg" xmlns:xlink="http://www.w3.org/1999/xlink" overflow="hidden"><defs><clipPath id="clip0"><rect x="592" y="312" width="96" height="96"/></clipPath></defs><g clip-path="url(#clip0)" transform="translate(-592 -312)"><path d="M678.7 382.62 664.9 368.82C663.217 367.108 660.465 367.084 658.753 368.767 658.735 368.785 658.717 368.802 658.7 368.82L651.3 376.52C650.46 377.32 649.14 377.32 648.3 376.52L623.5 351.811C622.7 350.971 622.7 349.651 623.5 348.811L631.2 341.211C632.912 339.526 632.934 336.773 631.25 335.061 631.233 335.044 631.217 335.027 631.2 335.011L617.4 321.3C616.608 320.491 615.531 320.025 614.4 320 613.239 320.024 612.13 320.488 611.3 321.3L603.4 329.2C601.409 331.041 600.223 333.591 600.1 336.3 599.96 340.746 600.743 345.172 602.4 349.3 604.045 352.991 606.055 356.509 608.4 359.8 616.549 372.088 626.887 382.773 638.9 391.322 640.9 392.806 643.006 394.143 645.2 395.322 650.169 397.935 655.608 399.533 661.2 400.022 661.521 400.047 661.841 400.059 662.161 400.06 665.667 400.048 669.012 398.586 671.401 396.02L678.601 388.82C679.428 388 679.896 386.885 679.901 385.72 679.932 384.567 679.5 383.451 678.7 382.62ZM612.711 322.72C613.167 322.282 613.768 322.025 614.4 322 615.003 322.029 615.572 322.286 615.991 322.72L629.791 336.42C630.722 337.323 630.745 338.81 629.842 339.742 629.828 339.756 629.814 339.77 629.8 339.784L626.98 342.566 609.923 325.51ZM669.99 394.609 669.963 394.636 669.938 394.663C667.93 396.824 665.115 398.056 662.164 398.063 661.896 398.063 661.626 398.052 661.343 398.03 656.024 397.563 650.852 396.039 646.129 393.55 644.03 392.421 642.015 391.142 640.1 389.722L640.079 389.706 640.056 389.69C628.229 381.284 618.054 370.768 610.042 358.67 607.784 355.506 605.848 352.125 604.262 348.576 603.09 345.286 601.8 340.946 602.1 336.44L602.1 336.41 602.1 336.381C602.207 334.195 603.169 332.138 604.779 330.655L604.798 330.637 604.816 330.619 608.51 326.924 625.557 343.971 622.087 347.4C620.504 349.022 620.504 351.61 622.087 353.232L646.887 377.932C648.519 379.524 651.127 379.512 652.744 377.904L656.049 374.464 673.092 391.506ZM677.19 387.409 674.506 390.094 657.435 373.022 660.118 370.23C661.019 369.299 662.504 369.275 663.435 370.176 663.453 370.194 663.471 370.212 663.489 370.23L677.289 384.03C678.146 385.007 678.102 386.479 677.189 387.403Z"/></g></svg>