<svg width="96" height="96" xmlns="http://www.w3.org/2000/svg" xmlns:xlink="http://www.w3.org/1999/xlink" overflow="hidden"><defs><clipPath id="clip0"><rect x="206" y="480" width="96" height="96"/></clipPath></defs><g clip-path="url(#clip0)" transform="translate(-206 -480)"><path d="M279 516.9 279 508.32C268.078 508.319 259.175 517.079 259 528L259 548 279 548 279 528 267.59 528C267.763 521.822 272.82 516.903 279 516.9ZM265.591 527.944 265.533 530 277 530 277 546 261 546 261 528.032C261.185 518.991 268.018 511.476 277 510.432L277 515.046C270.561 515.988 265.74 521.438 265.591 527.944Z"/><path d="M249 516.9 249 508.32C238.078 508.319 229.175 517.079 229 528L229 548 249 548 249 528 237.59 528C237.763 521.822 242.82 516.903 249 516.9ZM235.591 527.944 235.533 530 247 530 247 546 231 546 231 528.032C231.186 518.991 238.018 511.476 247 510.432L247 515.046C240.561 515.988 235.74 521.438 235.591 527.944Z"/></g></svg>