<svg width="96" height="96" xmlns="http://www.w3.org/2000/svg" xmlns:xlink="http://www.w3.org/1999/xlink" overflow="hidden"><defs><clipPath id="clip0"><rect x="123" y="77" width="96" height="96"/></clipPath></defs><g clip-path="url(#clip0)" transform="translate(-123 -77)"><path d="M205.8 116C205 116 204.3 116.1 203.5 116.3L201.3 109.6C207.4 106.4 209.8 98.9 206.6 92.8 203.4 86.7 195.9 84.3 189.8 87.5 186.5 89.2 184.1 92.4 183.3 96L174.5 95.2C174.4 90.6 170.7 87 166.1 87.1 161.5 87.2 157.9 90.9 158 95.5 158 97.2 158.6 98.8 159.5 100.2L148.5 111.1C143.3 106.6 135.4 107.1 130.9 112.3 126.4 117.5 126.8 125.4 132 129.9 134.3 131.9 137.2 133 140.2 133 140.5 133 140.8 133 141.1 133L143.8 147.4C139.4 148.7 137 153.3 138.3 157.7 139.6 162.1 144.2 164.5 148.6 163.2 153 161.9 155.4 157.3 154.1 152.9 153.9 152.4 153.7 151.9 153.5 151.4L162.4 146.9 162.4 146.9C167.3 153.6 176.7 155 183.3 150.1 188.4 146.3 190.6 139.8 188.8 133.7L198.5 128.4C200.8 132.3 205.8 133.7 209.8 131.4 213.7 129.1 215.1 124.1 212.8 120.1 211.4 117.6 208.7 116 205.8 116ZM189.4 107.1C189.7 103.8 192.7 101.3 196 101.6 198.9 101.9 201.2 104.2 201.5 107.1 197.9 109.6 193.1 109.6 189.4 107.1ZM192.7 96.8C192.7 95.3 193.9 94 195.5 94 197.1 94 198.3 95.2 198.3 96.8 198.3 98.3 197.1 99.6 195.5 99.6 194 99.6 192.7 98.3 192.7 96.8L192.7 96.8ZM195.5 88C201.3 88 206 92.7 206 98.5 206 101.1 205 103.6 203.3 105.6 202.7 103.3 201 101.3 198.8 100.3 200.7 98.5 200.8 95.5 199 93.5 197.2 91.6 194.2 91.5 192.2 93.3 190.2 95.1 190.2 98.1 192 100.1 192.1 100.2 192.2 100.3 192.2 100.3 190 101.3 188.3 103.2 187.7 105.6 183.8 101.3 184.1 94.7 188.4 90.8 190.4 89 192.9 88 195.5 88ZM188.8 109.1 180.7 124.4C173.6 121.1 165.3 123.8 161.5 130.6L151.8 125.3C153.6 121 152.8 116.1 149.9 112.5L160.9 101.5C164.3 104.5 169.5 104.1 172.5 100.6 173.4 99.6 174 98.4 174.3 97.1L183.1 97.9C183.1 98.1 183.1 98.3 183.1 98.5 183 102.8 185.2 106.8 188.8 109.1ZM164.9 94.2C164.9 93.4 165.5 92.8 166.3 92.8 167.1 92.8 167.7 93.4 167.7 94.2 167.7 95 167.1 95.6 166.3 95.6 166.3 95.6 166.3 95.6 166.3 95.6 165.5 95.5 164.9 94.9 164.9 94.2ZM166.3 97.5C168 97.5 169.4 98.7 169.7 100.4 167.6 101.8 165 101.8 162.9 100.4 163.1 98.8 164.5 97.6 166.3 97.5ZM166.3 89C169.7 89 172.5 91.8 172.6 95.2 172.6 96.5 172.2 97.8 171.4 98.9 170.9 97.8 170.1 96.8 169 96.2 169.5 95.6 169.7 94.9 169.7 94.1 169.7 92.2 168.2 90.7 166.3 90.7 164.4 90.7 162.9 92.2 162.9 94.1 162.9 94.9 163.2 95.6 163.6 96.2 162.5 96.8 161.7 97.7 161.2 98.9 159.2 96.1 159.8 92.2 162.5 90.2 163.6 89.4 164.9 89 166.3 89ZM129.8 120.5C129.8 114.7 134.5 110 140.3 110 146.1 110 150.8 114.7 150.8 120.5 150.8 123.1 149.8 125.6 148.1 127.6 147.5 125.3 145.8 123.3 143.6 122.3 145.5 120.5 145.6 117.5 143.8 115.5 142 113.5 139 113.5 137 115.3 135.1 117.1 135 120.1 136.8 122.1 136.9 122.2 137 122.3 137 122.3 134.8 123.3 133.1 125.2 132.5 127.6 130.7 125.6 129.8 123.1 129.8 120.5ZM137.5 118.8C137.5 117.3 138.7 116 140.3 116 141.9 116 143.1 117.2 143.1 118.8 143.1 120.3 141.9 121.6 140.3 121.6 138.7 121.6 137.5 120.3 137.5 118.8ZM134.2 129.1C134.5 125.8 137.5 123.3 140.8 123.6 143.7 123.9 146 126.2 146.3 129.1 142.7 131.6 137.8 131.6 134.2 129.1ZM142.8 160.5C143.1 158.6 144.8 157.3 146.7 157.6 148.2 157.8 149.4 159 149.6 160.5 147.6 161.8 144.9 161.8 142.8 160.5ZM144.9 154.2C144.9 153.4 145.5 152.8 146.3 152.8 147.1 152.8 147.7 153.4 147.7 154.2 147.7 155 147.1 155.6 146.3 155.6 145.5 155.5 144.9 154.9 144.9 154.2L144.9 154.2ZM151.3 158.9C150.8 157.8 150 156.8 148.9 156.2 149.4 155.6 149.6 154.9 149.6 154.1 149.6 152.2 148.1 150.7 146.2 150.7 144.3 150.7 142.8 152.2 142.8 154.1 142.8 154.9 143.1 155.6 143.5 156.2 142.4 156.8 141.6 157.7 141.1 158.9 139.1 156.1 139.7 152.2 142.5 150.2 145.3 148.2 149.2 148.8 151.2 151.6 152.9 153.7 152.9 156.7 151.3 158.9L151.3 158.9ZM152.3 149.7C150.8 148 148.6 147 146.3 147 146.2 147 146 147 145.9 147L143.2 132.6C146.4 131.8 149.2 129.8 150.9 127L160.6 132.3C158.9 136.5 159.2 141.2 161.3 145.1L152.3 149.7ZM166.9 148.5C167.2 144.3 170.9 141.2 175.1 141.5 178.8 141.8 181.8 144.8 182.1 148.5 177.6 151.8 171.4 151.8 166.9 148.5ZM170.9 135.9C170.9 133.9 172.5 132.3 174.5 132.3 176.5 132.3 178.1 133.9 178.1 135.9 178.1 137.9 176.5 139.5 174.5 139.5 174.5 139.5 174.5 139.5 174.5 139.5 172.5 139.5 170.9 137.9 170.9 135.9ZM183.9 147C183.2 143.9 181 141.4 178.1 140.2 180.5 138.2 180.8 134.7 178.8 132.3 176.8 129.9 173.3 129.6 170.9 131.6 168.5 133.6 168.2 137.1 170.2 139.5 170.4 139.8 170.7 140 170.9 140.2 168 141.4 165.8 143.9 165.1 147 160.1 141.8 160.3 133.6 165.5 128.6 170.7 123.6 178.9 123.8 183.9 129 188.7 134 188.7 142 183.9 147ZM188.1 131.8C186.9 129.1 184.9 126.9 182.5 125.3L190.6 110C193.4 111.2 196.5 111.3 199.4 110.4L201.6 117.1C198.3 119 196.7 122.9 197.8 126.5L188.1 131.8ZM202.3 129.5C202.6 127.6 204.3 126.3 206.2 126.6 207.7 126.8 208.9 128 209.1 129.5 207.1 130.8 204.4 130.8 202.3 129.5ZM204.4 123.2C204.4 122.4 205 121.8 205.8 121.8 206.6 121.8 207.2 122.4 207.2 123.2 207.2 124 206.6 124.6 205.8 124.6 205.8 124.6 205.8 124.6 205.8 124.6 205 124.5 204.4 123.9 204.4 123.2L204.4 123.2ZM210.8 127.9C210.3 126.8 209.5 125.8 208.4 125.2 208.9 124.6 209.1 123.9 209.1 123.1 209.1 121.2 207.6 119.7 205.7 119.7 203.8 119.7 202.3 121.2 202.3 123.1 202.3 123.9 202.6 124.6 203 125.2 201.9 125.8 201.1 126.7 200.6 127.9 198.6 125.1 199.2 121.2 202 119.2 204.8 117.2 208.7 117.8 210.7 120.6 212.4 122.7 212.4 125.7 210.8 127.9 210.8 127.9 210.8 127.9 210.8 127.9Z"/></g></svg>