<svg width="96" height="96" xmlns="http://www.w3.org/2000/svg" xmlns:xlink="http://www.w3.org/1999/xlink" overflow="hidden"><defs><clipPath id="clip0"><rect x="478" y="134" width="96" height="96"/></clipPath></defs><g clip-path="url(#clip0)" transform="translate(-478 -134)"><path d="M562 165.009 536 165.009 536 158.009C535.993 155.803 534.206 154.016 532 154.009L490 154.009C487.794 154.016 486.007 155.803 486 158.009L486 185.017C486.007 187.223 487.794 189.01 490 189.017L496 189.017 496 199.017 506 189.017 516 189.017 516 196.017C516.007 198.223 517.794 200.01 520 200.017L546 200.017 556 210.017 556 200.017 562 200.017C564.206 200.01 565.993 198.223 566 196.017L566 169.01C565.994 166.803 564.207 165.016 562 165.009ZM516 169.009 516 187.018 505.174 187.018 504.588 187.604 498 194.192 498 187.018 490 187.018C488.895 187.018 488 186.123 488 185.018L488 158.01C488 156.905 488.895 156.01 490 156.01L532 156.01C533.105 156.01 534 156.905 534 158.01L534 165.01 520 165.01C517.794 165.017 516.007 166.804 516 169.01ZM564 196.017C564 197.122 563.105 198.017 562 198.017L554 198.017 554 205.191 547.418 198.6 546.832 198.014 520 198.014C518.895 198.014 518 197.119 518 196.014L518 169.01C518 167.905 518.895 167.01 520 167.01L562 167.01C563.105 167.01 564 167.905 564 169.01Z"/></g></svg>