<svg width="96" height="96" xmlns="http://www.w3.org/2000/svg" xmlns:xlink="http://www.w3.org/1999/xlink" overflow="hidden"><defs><clipPath id="clip0"><rect x="249" y="315" width="96" height="96"/></clipPath></defs><g clip-path="url(#clip0)" transform="translate(-249 -315)"><path d="M297 365C298.091 365 299.179 364.891 300.248 364.675 299.634 364.182 299.122 363.574 298.742 362.885 290.767 363.874 283.501 358.212 282.511 350.237 281.522 342.263 287.185 334.996 295.159 334.006 303.134 333.017 310.4 338.68 311.39 346.654 311.681 349.003 311.395 351.387 310.557 353.6L312.908 352.816C315.286 344.025 310.087 334.97 301.296 332.592 292.505 330.214 283.45 335.413 281.072 344.204 278.694 352.995 283.893 362.05 292.684 364.428 294.091 364.809 295.542 365.001 297 365Z"/><path d="M325.516 377.537C320.929 374.005 315.674 371.439 310.068 369.993 305.833 368.693 301.43 368.026 297 368.015 292.581 368.089 288.191 368.753 283.947 369.989 278.41 371.615 273.188 374.164 268.5 377.529 266.352 379.215 265.076 381.778 265.026 384.508L265.026 400 267.026 400 267.026 384.508C267.07 382.4 268.056 380.422 269.713 379.119 274.198 375.905 279.194 373.471 284.489 371.919 288.556 370.732 292.764 370.091 297 370.015 301.238 370.029 305.45 370.669 309.5 371.915 314.852 373.288 319.87 375.73 324.252 379.094 325.927 380.398 326.927 382.387 326.974 384.51L326.974 400 328.974 400 328.974 384.508C328.927 381.783 327.657 379.223 325.516 377.537Z"/><path d="M282.714 335C290.44 327.113 303.097 326.982 310.984 334.708 313.282 336.959 315.002 339.73 316 342.788L316 354.946 306.355 358.161C305.334 356.862 303.454 356.637 302.155 357.658 300.856 358.678 300.631 360.559 301.652 361.857 302.672 363.156 304.553 363.382 305.852 362.361 306.56 361.804 306.98 360.957 306.994 360.056L319.231 355.977C320.788 355.857 321.993 354.562 322 353L322 345C322 343.343 320.657 342 319 342L317.833 342C313.98 330.489 301.525 324.281 290.014 328.134 286.713 329.239 283.721 331.113 281.286 333.6 280.894 333.989 280.891 334.622 281.28 335.014 281.669 335.406 282.302 335.409 282.694 335.02 282.701 335.014 282.707 335.007 282.714 335ZM320 345 320 353C320 353.552 319.552 354 319 354L318 354 318 344 319 344C319.552 344 320 344.448 320 345Z"/></g></svg>