<svg width="96" height="96" xmlns="http://www.w3.org/2000/svg" xmlns:xlink="http://www.w3.org/1999/xlink" overflow="hidden"><defs><clipPath id="clip0"><rect x="258" y="49" width="96" height="96"/></clipPath></defs><g clip-path="url(#clip0)" transform="translate(-258 -49)"><path d="M306 62C286.67 62 271 77.67 271 97 271 116.33 286.67 132 306 132 325.33 132 341 116.33 341 97 340.978 77.6792 325.321 62.022 306 62ZM338.014 89 320.992 89C319.4 86.0321 316.968 83.5999 314 82.008L314 64.986C325.813 67.9637 335.036 77.1873 338.014 89ZM306 112C297.716 112 291 105.284 291 97 291 88.7157 297.716 82 306 82 314.284 82 321 88.7157 321 97 320.991 105.28 314.28 111.991 306 112ZM312 64.557 312 81.114C308.138 79.6287 303.862 79.6287 300 81.114L300 64.557C303.966 63.8143 308.034 63.8143 312 64.557ZM298 64.986 298 82.008C295.032 83.5999 292.6 86.0321 291.008 89L273.986 89C276.964 77.1873 286.187 67.9637 298 64.986ZM273.557 91 290.114 91C288.629 94.8621 288.629 99.1379 290.114 103L273.557 103C272.814 99.0345 272.814 94.9655 273.557 91ZM273.986 105 291.008 105C292.6 107.968 295.032 110.4 298 111.992L298 129.014C286.187 126.036 276.964 116.813 273.986 105ZM300 129.443 300 112.886C303.862 114.371 308.138 114.371 312 112.886L312 129.443C308.034 130.186 303.966 130.186 300 129.443ZM314 129.014 314 111.992C316.968 110.4 319.4 107.968 320.992 105L338.014 105C335.036 116.813 325.813 126.036 314 129.014ZM338.443 103 321.886 103C323.371 99.1379 323.371 94.8621 321.886 91L338.443 91C339.186 94.9655 339.186 99.0345 338.443 103Z"/></g></svg>