<svg width="96" height="96" xmlns="http://www.w3.org/2000/svg" xmlns:xlink="http://www.w3.org/1999/xlink" overflow="hidden"><defs><clipPath id="clip0"><rect x="815" y="570" width="96" height="96"/></clipPath></defs><g clip-path="url(#clip0)" transform="translate(-815 -570)"><path d="M869.63 660.264 867.63 660.264 867.63 649.877C867.63 649.502 867.839 649.159 868.172 648.987 869.158 648.479 870.854 646.541 871.123 639.268 871.129 639.11 871.172 638.955 871.25 638.816L875.11 631.922C875.207 631.718 875.228 631.486 875.169 631.269 875.116 631.074 874.981 630.911 874.799 630.823 874.412 630.586 873.906 630.708 873.669 631.095 873.666 631.101 873.663 631.106 873.659 631.111L869.96 637.681C869.689 638.162 869.079 638.332 868.598 638.061 868.205 637.84 868.009 637.383 868.119 636.946L870.602 627.11C870.666 626.895 870.635 626.663 870.517 626.473 870.405 626.293 870.222 626.17 870.014 626.133 869.78 626.052 869.523 626.078 869.31 626.203 869.131 626.314 869.007 626.497 868.971 626.706L866.843 635.227C866.708 635.763 866.165 636.088 865.63 635.954 865.185 635.843 864.873 635.443 864.873 634.985L864.873 625.822C864.879 625.373 864.539 624.996 864.092 624.955 863.63 624.924 863.229 625.273 863.198 625.735 863.197 625.754 863.196 625.773 863.196 625.792L863.196 635.628C863.195 636.18 862.746 636.627 862.194 636.625 861.73 636.625 861.328 636.305 861.222 635.854L859.109 626.753C859.006 626.3 858.556 626.016 858.103 626.119 857.65 626.222 857.366 626.672 857.469 627.125 857.473 627.142 857.477 627.159 857.482 627.175L860.044 638.065C860.067 638.163 860.075 638.264 860.068 638.365 859.954 639.664 859.73 640.952 859.398 642.213 859.264 642.749 858.721 643.074 858.185 642.94 857.99 642.891 857.814 642.785 857.68 642.634 857.61 642.574 857.549 642.503 857.499 642.426 856.143 640.228 854.077 638.56 851.643 637.697 851.464 637.636 851.268 637.654 851.103 637.747 850.929 637.85 850.802 638.017 850.747 638.213 850.645 638.588 850.867 638.974 851.243 639.076 851.252 639.078 851.261 639.081 851.27 639.083 852.76 639.424 853.893 641.168 855.205 643.187L855.314 643.356C856.754 645.606 858.499 648.12 861.035 649.558 861.348 649.736 861.542 650.068 861.542 650.428L861.542 660.265 859.542 660.265 859.542 650.994C857.117 649.268 855.1 647.031 853.634 644.44L853.528 644.276C852.588 642.83 851.523 641.191 850.758 641.014 849.312 640.646 848.438 639.175 848.806 637.729 848.814 637.698 848.822 637.669 848.831 637.639 849.031 636.954 849.487 636.372 850.105 636.013 850.736 635.647 851.492 635.56 852.19 635.773 854.418 636.491 856.395 637.831 857.886 639.635 857.89 639.639 857.897 639.639 857.901 639.635 857.902 639.633 857.903 639.632 857.903 639.63 857.97 639.222 858.026 638.797 858.062 638.372L855.524 627.583C855.168 626.056 856.118 624.53 857.645 624.174 859.172 623.818 860.698 624.767 861.055 626.294 861.059 626.312 861.063 626.329 861.066 626.347L861.177 626.822C861.188 626.867 861.196 626.867 861.196 626.82L861.196 625.851C861.184 624.302 862.401 623.021 863.949 622.954 865.518 622.909 866.826 624.144 866.872 625.713 866.873 625.739 866.873 625.765 866.873 625.792L866.873 626.778C866.873 626.822 866.882 626.823 866.892 626.781L867.017 626.284C867.163 625.549 867.607 624.907 868.244 624.51 868.903 624.097 869.705 623.978 870.455 624.183 871.183 624.332 871.817 624.774 872.209 625.405 872.622 626.064 872.74 626.866 872.536 627.617L871.905 630.118C871.896 630.153 871.904 630.156 871.922 630.125 871.955 630.077 871.983 630.026 872.006 629.972 872.803 628.745 874.408 628.337 875.694 629.034 876.38 629.373 876.889 629.988 877.094 630.725 877.29 631.438 877.213 632.199 876.877 632.857L873.112 639.584C872.871 645.367 871.729 648.93 869.63 650.434Z"/><path d="M822.332 638.153 821.389 636.389 830.487 631.517C830.82 631.34 831.224 631.364 831.532 631.58 833.071 632.657 836.652 631.927 841.356 629.574 841.499 629.503 841.656 629.467 841.815 629.469L849.812 629.56C850.275 629.557 850.647 629.179 850.644 628.716 850.641 628.253 850.263 627.88 849.8 627.883L842.343 627.791C841.791 627.784 841.348 627.331 841.355 626.779 841.361 626.326 841.67 625.934 842.108 625.822L851.851 623.34C852.067 623.281 852.25 623.138 852.359 622.943 852.456 622.776 852.48 622.576 852.426 622.39 852.372 622.158 852.224 621.959 852.018 621.84 851.85 621.744 851.651 621.72 851.465 621.774L842.976 623.99C842.441 624.129 841.895 623.809 841.755 623.275 841.64 622.831 841.841 622.365 842.244 622.145L850.332 617.732C850.737 617.515 850.889 617.012 850.672 616.607 850.455 616.203 849.952 616.05 849.547 616.267 849.535 616.273 849.523 616.28 849.512 616.287L840.895 620.872C840.407 621.131 839.802 620.945 839.543 620.457 839.326 620.049 839.417 619.545 839.764 619.239L846.749 613.08C846.911 612.931 847.009 612.725 847.021 612.505 847.042 612.292 846.977 612.079 846.841 611.915 846.693 611.753 846.487 611.657 846.269 611.645 846.056 611.624 845.844 611.689 845.679 611.825L837.222 619.18C837.15 619.242 837.07 619.294 836.984 619.334 835.762 619.906 834.466 620.304 833.133 620.517 832.587 620.601 832.077 620.228 831.992 619.682 831.984 619.631 831.98 619.58 831.98 619.529 831.98 619.24 832.095 618.963 832.299 618.759 833.499 616.567 833.945 614.042 833.569 611.571 833.529 611.393 833.415 611.24 833.255 611.151 833.065 611.041 832.843 611.002 832.626 611.04 832.246 611.181 832.03 611.583 832.123 611.978 832.475 613.499 831.508 615.345 830.39 617.481 828.978 620.105 827.721 622.662 827.64 625.532 827.629 625.889 827.43 626.212 827.117 626.382L818.477 631.071 817.523 629.313 825.671 624.891C826.06 621.944 827.06 619.11 828.607 616.572 829.434 614.994 830.359 613.227 830.168 612.398 829.839 610.914 830.757 609.44 832.233 609.078 832.932 608.944 833.656 609.068 834.27 609.427 834.917 609.794 835.374 610.422 835.523 611.15 835.939 613.468 835.689 615.856 834.801 618.037 834.8 618.042 834.803 618.048 834.808 618.049 834.81 618.05 834.811 618.05 834.813 618.05 835.216 617.914 835.618 617.755 836.019 617.575L844.364 610.316C845.549 609.315 847.314 609.44 848.347 610.596 848.833 611.164 849.074 611.903 849.017 612.649 848.965 613.392 848.625 614.085 848.068 614.581L847.537 615.049C847.503 615.079 847.508 615.086 847.548 615.065L848.595 614.508C849.974 613.773 851.688 614.295 852.424 615.674 853.159 617.053 852.637 618.768 851.258 619.503L850.421 619.96C850.384 619.98 850.387 619.988 850.428 619.977 850.428 619.977 850.543 619.947 850.571 619.941 851.374 619.747 852.216 619.799 852.988 620.091 853.661 620.464 854.152 621.096 854.348 621.839 854.551 622.534 854.465 623.282 854.108 623.913 853.735 624.585 853.104 625.076 852.361 625.273L850.012 625.871C849.981 625.879 849.982 625.887 850.014 625.889 851.578 626.002 852.754 627.362 852.641 628.926 852.533 630.414 851.292 631.565 849.8 631.56L842.033 631.471C836.96 633.975 833.232 634.671 830.939 633.544Z"/><path d="M901.383 642.822 895.15 636.068C891.957 636.656 888.864 635.908 886.351 635.302 885.142 634.987 882.661 634.341 881.919 634.748 881.282 635.102 880.525 635.169 879.836 634.933 879.166 634.708 878.607 634.239 878.267 633.619 877.91 632.982 877.841 632.222 878.077 631.531 878.303 630.862 878.772 630.302 879.391 629.962 881.506 628.956 883.866 628.578 886.19 628.875 886.195 628.875 886.2 628.87 886.2 628.865 886.2 628.863 886.2 628.861 886.199 628.86 885.965 628.504 885.713 628.15 885.44 627.81L876.279 621.55C875.008 620.645 874.686 618.894 875.552 617.596 876.398 616.328 877.712 615.653 879.013 616.522L879.964 617.165C880.002 617.191 880.008 617.184 879.977 617.151L879.234 616.347C878.173 615.26 878.193 613.517 879.281 612.456 879.305 612.432 879.329 612.41 879.354 612.387 879.888 611.839 880.633 611.548 881.398 611.59 882.133 611.635 882.826 611.951 883.341 612.479L884.118 613.313C884.146 613.344 884.153 613.339 884.133 613.302L883.779 612.655C883.431 611.989 883.347 611.216 883.544 610.49 883.748 609.753 884.258 609.137 884.944 608.798 885.603 608.463 886.364 608.385 887.077 608.581 887.814 608.785 888.429 609.295 888.767 609.981L890.01 612.233C890.026 612.263 890.034 612.26 890.028 612.227 890.028 612.227 890.02 612.196 890.018 612.181 889.686 610.649 890.659 609.138 892.19 608.806 893.691 608.481 895.179 609.409 895.547 610.9L897.334 618.408C899.562 620.919 902.846 625.313 902.129 628.733L908.737 635.952 907.263 637.303 900.277 629.673C900.024 629.396 899.946 629.001 900.077 628.649 900.893 626.456 898.338 622.513 895.677 619.555 895.565 619.43 895.486 619.28 895.447 619.117L893.609 611.395C893.492 610.932 893.022 610.651 892.558 610.768 892.557 610.768 892.556 610.768 892.555 610.769 892.113 610.904 891.859 611.367 891.981 611.812L893.716 619.02C893.846 619.557 893.517 620.097 892.981 620.228 892.541 620.335 892.085 620.134 891.867 619.737L886.996 610.912C886.91 610.714 886.74 610.565 886.532 610.506 886.299 610.446 886.051 610.476 885.838 610.588 885.655 610.675 885.52 610.838 885.469 611.033 885.409 611.267 885.438 611.514 885.551 611.728L889.761 619.417C890.026 619.902 889.847 620.509 889.362 620.774 888.962 620.993 888.464 620.912 888.152 620.579L881.902 613.868C881.741 613.705 881.526 613.606 881.297 613.588 881.098 613.581 880.906 613.659 880.768 613.802 880.424 614.077 880.367 614.579 880.642 614.923 880.653 614.936 880.664 614.949 880.676 614.962L887.412 622.253C887.786 622.659 887.761 623.292 887.354 623.666 887.013 623.98 886.501 624.019 886.116 623.759L878.396 618.519C878.014 618.247 877.484 618.337 877.212 618.72 876.945 619.096 877.027 619.617 877.398 619.893L886.69 626.242C886.769 626.296 886.84 626.361 886.9 626.435 887.709 627.46 888.42 628.558 889.026 629.714 889.291 630.199 889.112 630.807 888.627 631.071 888.48 631.151 888.316 631.193 888.148 631.193 888.041 631.193 887.935 631.185 887.829 631.167 885.348 630.489 882.709 630.682 880.353 631.716 880.177 631.814 880.042 631.974 879.975 632.165 879.919 632.324 879.933 632.501 880.015 632.649 880.113 632.83 880.275 632.968 880.469 633.037 880.629 633.094 880.805 633.079 880.954 632.997 882.294 632.265 884.411 632.73 886.838 633.363 889.28 633.952 892.341 634.69 895.271 634.001 895.623 633.918 895.991 634.031 896.236 634.296L902.853 641.466Z"/><path d="M877.216 611.179C876.752 611.208 876.29 611.098 875.889 610.862 875.228 610.519 874.739 609.916 874.541 609.198 874.345 608.485 874.423 607.724 874.759 607.066L875.063 606.492C875.086 606.45 875.079 606.445 875.048 606.481L874.291 607.345C873.777 607.992 872.986 608.357 872.16 608.329 871.505 608.315 870.873 608.083 870.365 607.669 869.779 607.17 869.417 606.458 869.359 605.69 869.302 604.944 869.543 604.206 870.029 603.637L870.646 602.937C870.677 602.902 870.671 602.895 870.634 602.922L870.311 603.144C869.858 603.542 869.271 603.753 868.668 603.733 867.734 603.727 866.867 603.248 866.365 602.46 865.498 601.158 865.825 599.403 867.102 598.5L869.085 597.134C869.11 597.116 869.106 597.109 869.077 597.117 868.824 597.183 868.562 597.213 868.301 597.206 867.05 597.179 865.948 596.379 865.533 595.199 864.988 593.722 865.727 592.08 867.194 591.509L874.542 588.909C878.521 584.748 881.703 582.834 884.273 583.086L890.707 575.693 892.215 577.006 885.414 584.82C885.167 585.103 884.783 585.224 884.418 585.134 883.349 584.867 880.808 585.201 875.827 590.459 875.718 590.574 875.584 590.661 875.435 590.714L867.898 593.38C867.462 593.555 867.242 594.044 867.402 594.486 867.525 594.888 867.882 595.174 868.301 595.206 868.411 595.214 868.522 595.201 868.627 595.165L875.594 592.69C876.114 592.505 876.686 592.776 876.871 593.297 877.023 593.723 876.869 594.199 876.496 594.456L868.225 600.155C867.855 600.44 867.77 600.963 868.029 601.351 868.163 601.579 868.404 601.723 868.668 601.733 868.774 601.742 868.881 601.716 868.971 601.659 869.013 601.616 869.06 601.578 869.109 601.543L876.278 596.579C876.733 596.265 877.355 596.379 877.669 596.833 877.93 597.211 877.901 597.717 877.598 598.062L871.533 604.956C871.398 605.121 871.333 605.332 871.354 605.544 871.367 605.763 871.463 605.968 871.624 606.117 871.774 606.247 871.963 606.322 872.16 606.329 872.393 606.353 872.621 606.251 872.758 606.062L879.313 598.581C879.676 598.164 880.307 598.122 880.724 598.485 881.075 598.791 881.168 599.3 880.948 599.711L876.536 607.984C876.432 608.192 876.407 608.431 876.466 608.656 876.518 608.851 876.654 609.014 876.836 609.101 876.874 609.12 876.91 609.141 876.945 609.164 877.034 609.179 877.125 609.184 877.216 609.18 877.55 609.162 877.849 608.969 878.002 608.672L883.32 598.767C883.366 598.681 883.424 598.602 883.494 598.533 884.437 597.608 885.48 596.792 886.605 596.098 887.071 595.802 887.689 595.939 887.985 596.404 888.088 596.565 888.142 596.752 888.142 596.942 888.142 596.984 888.139 597.12 888.134 597.162 887.721 599.704 888.18 602.312 889.438 604.56 889.658 604.892 890.105 604.983 890.437 604.763 890.769 604.542 890.859 604.095 890.64 603.763 890.636 603.758 890.633 603.753 890.629 603.747 889.798 602.442 890.056 600.387 890.354 598.008L890.377 597.829C890.762 595.037 891.059 592.094 890.145 589.352 890.032 589.016 890.106 588.645 890.34 588.377L896.773 581.023 898.279 582.34 892.213 589.274C892.877 592.17 892.927 595.173 892.359 598.089L892.339 598.256C892.121 600 891.873 601.976 892.305 602.656 893.136 603.908 892.795 605.597 891.543 606.428 890.296 607.255 888.615 606.921 887.78 605.678 886.56 603.661 885.948 601.335 886.018 598.978 886.018 598.973 886.013 598.969 886.007 598.969 886.006 598.969 886.004 598.97 886.002 598.971 885.644 599.258 885.316 599.547 885.01 599.845L879.751 609.641C879.244 610.572 878.276 611.159 877.216 611.179Z"/><path d="M853.418 609.616C852.375 609.659 851.398 609.108 850.896 608.194L849.599 605.87C849.583 605.841 849.575 605.844 849.581 605.877L849.612 605.993C849.933 607.468 849.062 608.941 847.614 609.372 847.359 609.485 847.08 609.537 846.801 609.525 845.497 609.537 844.361 608.636 844.078 607.362L842.22 599.927C841.167 598.822 836.49 593.628 837.568 589.644L830.908 582.55 832.367 581.181 839.443 588.719C839.721 589.015 839.792 589.45 839.623 589.819 838.553 592.163 841.638 596.521 843.833 598.717 843.961 598.845 844.052 599.006 844.096 599.181L846.026 606.903C846.102 607.269 846.428 607.53 846.802 607.525 846.866 607.499 846.932 607.48 846.999 607.468 847.472 607.36 847.767 606.889 847.659 606.417 847.658 606.413 847.657 606.409 847.656 606.405L845.92 599.198C845.791 598.661 846.121 598.121 846.658 597.991 847.094 597.886 847.547 598.085 847.766 598.477L852.637 607.21C852.784 607.498 853.097 607.662 853.418 607.616 853.546 607.611 853.671 607.574 853.781 607.509 853.816 607.486 853.852 607.465 853.89 607.446 854.066 607.353 854.196 607.192 854.25 607 854.321 606.783 854.302 606.547 854.198 606.344L849.97 598.713C849.702 598.23 849.877 597.621 850.36 597.354 850.762 597.131 851.263 597.211 851.576 597.547L857.826 604.258C858.192 604.567 858.726 604.574 859.099 604.274 859.397 603.946 859.397 603.445 859.099 603.116L852.412 595.97C852.035 595.567 852.056 594.934 852.46 594.557 852.799 594.239 853.313 594.198 853.699 594.456L861.512 599.696C861.651 599.772 861.808 599.809 861.966 599.803 862.256 599.797 862.526 599.655 862.696 599.42 862.953 599.037 862.874 598.521 862.513 598.234L853.14 591.982C853.057 591.927 852.983 591.86 852.92 591.783 852.111 590.758 851.399 589.66 850.794 588.503 850.529 588.018 850.708 587.411 851.193 587.146 851.34 587.066 851.505 587.024 851.672 587.024 851.779 587.024 851.886 587.033 851.991 587.05 854.472 587.729 857.111 587.535 859.467 586.502 859.623 586.417 859.737 586.273 859.784 586.102 859.832 585.921 859.807 585.729 859.713 585.568 859.629 585.408 859.483 585.29 859.309 585.241 859.128 585.194 858.936 585.22 858.774 585.313 857.457 586.032 855.433 585.593 853.088 585.083L852.93 585.049C850.455 584.451 847.401 583.713 844.484 584.487 844.128 584.581 843.749 584.472 843.497 584.203L836.788 577.033 838.249 575.667 844.562 582.414C847.761 581.744 850.858 582.492 853.377 583.099L853.513 583.129C855.135 583.482 857.151 583.922 857.81 583.562 858.429 583.214 859.16 583.126 859.844 583.315 860.534 583.507 861.117 583.969 861.461 584.598 861.811 585.218 861.901 585.951 861.711 586.638 861.52 587.328 861.057 587.911 860.429 588.255 858.319 589.273 855.957 589.653 853.634 589.348 853.629 589.348 853.624 589.352 853.624 589.358 853.624 589.359 853.625 589.361 853.625 589.363 853.857 589.715 854.107 590.065 854.376 590.403L863.623 596.569C864.924 597.481 865.24 599.275 864.328 600.576 863.788 601.346 862.906 601.804 861.966 601.802 861.412 601.81 860.867 601.656 860.4 601.359 860.4 601.359 860.179 601.211 859.914 601.033 859.875 601.006 859.87 601.013 859.902 601.047L860.582 601.774C861.612 602.913 861.562 604.661 860.467 605.738 860.434 605.771 860.398 605.802 860.36 605.83 859.819 606.247 859.157 606.479 858.474 606.49 857.692 606.503 856.939 606.198 856.387 605.646L855.727 604.936C855.697 604.904 855.69 604.909 855.711 604.947L855.948 605.373C856.316 606.053 856.393 606.853 856.161 607.591 855.954 608.285 855.478 608.867 854.838 609.207 854.411 609.47 853.92 609.611 853.418 609.616Z"/></g></svg>