<svg width="96" height="96" xmlns="http://www.w3.org/2000/svg" xmlns:xlink="http://www.w3.org/1999/xlink" overflow="hidden"><defs><clipPath id="clip0"><rect x="686" y="413" width="96" height="96"/></clipPath></defs><g clip-path="url(#clip0)" transform="translate(-686 -413)"><path d="M693.891 430 693.891 492.025 774.017 492.025 774.017 430ZM772.017 432 772.017 444 695.891 444 695.891 432ZM695.891 490.025 695.891 446 772.017 446 772.017 490.025Z"/><path d="M751 438C751 439.105 750.105 440 749 440 747.895 440 747 439.105 747 438 747 436.895 747.895 436 749 436 750.105 436 751 436.895 751 438Z"/><path d="M758 438C758 439.105 757.105 440 756 440 754.895 440 754 439.105 754 438 754 436.895 754.895 436 756 436 757.105 436 758 436.895 758 438Z"/><path d="M765 438C765 439.105 764.105 440 763 440 761.895 440 761 439.105 761 438 761 436.895 761.895 436 763 436 764.105 436 765 436.895 765 438Z"/><path d="M724.5 467C728.642 467 732 463.642 732 459.5 732 455.358 728.642 452 724.5 452 720.358 452 717 455.358 717 459.5 717.004 463.64 720.36 466.996 724.5 467ZM724.5 454C727.538 454 730 456.462 730 459.5 730 462.538 727.538 465 724.5 465 721.462 465 719 462.538 719 459.5 719.004 456.464 721.464 454.004 724.5 454Z"/><path d="M737.708 472.406C735.586 470.775 733.158 469.589 730.567 468.919 728.595 468.315 726.545 468.005 724.483 468 722.439 468.035 720.408 468.343 718.445 468.915 715.876 469.665 713.454 470.849 711.284 472.415 710.178 473.279 709.522 474.597 709.5 476L709.5 485 739.5 485 739.5 475.979C739.473 474.579 738.814 473.266 737.708 472.406ZM737.5 483 711.5 483 711.5 476.021C711.512 475.239 711.872 474.503 712.483 474.013 714.461 472.591 716.666 471.516 719.005 470.835 720.792 470.314 722.639 470.033 724.5 470 726.374 470.008 728.237 470.292 730.028 470.843 732.371 471.446 734.567 472.515 736.487 473.987 737.109 474.473 737.481 475.211 737.5 476Z"/><path d="M755.891 451 739.1 451C738.033 451.007 737.172 451.876 737.174 452.943L737.174 464.272C737.169 465.344 738.033 466.216 739.105 466.222L740.905 466.222 740.905 471.437 746.053 466.222 755.9 466.222C756.968 466.215 757.829 465.346 757.826 464.278L757.826 452.949C757.83 451.877 756.965 451.004 755.893 451 755.892 451 755.892 451 755.891 451ZM745.218 464.222 742.906 466.563 742.906 464.222 741.906 464.222 739.178 464.278 739.178 453 755.822 452.943 755.891 464.222Z"/></g></svg>