<svg width="96" height="96" xmlns="http://www.w3.org/2000/svg" xmlns:xlink="http://www.w3.org/1999/xlink" overflow="hidden"><defs><clipPath id="clip0"><rect x="484" y="333" width="96" height="96"/></clipPath></defs><g clip-path="url(#clip0)" transform="translate(-484 -333)"><path d="M567.973 376.339C565.648 376.339 564.517 378.517 561.8 379.964L557.977 379.965C557.873 377.251 557.342 374.57 556.404 372.021L557.55 371.549C558.52 371.866 559.513 372.103 560.521 372.259 560.817 372.26 561.109 372.203 561.383 372.09 562.891 371.47 563.346 370.158 562.618 368.389 562.075 367.069 561.243 366.393 560.229 366.393 559.853 366.399 559.482 366.479 559.136 366.628 557.937 367.121 557.683 368.376 556.802 369.694L555.633 370.175C554.479 367.664 552.932 365.353 551.051 363.328L553.759 360.619C556.715 359.71 559.064 360.459 560.713 358.81 562.521 357.001 562.387 354.828 560.266 352.706 559.406 351.707 558.183 351.094 556.868 351.001 555.833 351.036 554.856 351.49 554.163 352.26 552.518 353.904 553.259 356.245 552.361 359.189L549.636 361.915C547.605 360.037 545.289 358.494 542.773 357.344L543.262 356.155C544.581 355.274 545.835 355.019 546.328 353.82 546.949 352.312 546.336 351.066 544.568 350.338 544.088 350.128 543.572 350.012 543.048 349.999 542.054 349.989 541.17 350.627 540.867 351.574 540.372 352.778 541.092 353.844 541.407 355.408L540.926 356.577C538.381 355.647 535.705 355.123 532.997 355.024L532.996 351.194C534.443 348.462 536.633 347.331 536.633 344.999 536.633 342.441 535.002 340.999 532.002 340.999 529.002 340.999 527.37 342.441 527.37 344.999 527.37 347.324 529.549 348.456 530.996 351.173L530.997 355.025C528.265 355.126 525.566 355.66 523.001 356.607L522.508 355.409C522.823 353.845 523.544 352.778 523.049 351.574 522.745 350.627 521.861 349.989 520.867 349.999 520.344 350.012 519.828 350.128 519.348 350.338 517.579 351.066 516.967 352.312 517.587 353.82 518.08 355.019 519.334 355.273 520.653 356.154L521.156 357.379C518.666 358.527 516.373 360.06 514.361 361.923L511.651 359.214C510.741 356.258 511.49 353.909 509.841 352.259 509.148 351.49 508.171 351.035 507.135 351.001 505.821 351.094 504.598 351.707 503.738 352.706 501.617 354.828 501.483 357.001 503.291 358.81 504.935 360.454 507.276 359.713 510.22 360.611L512.946 363.336C511.062 365.368 509.513 367.687 508.358 370.206L507.113 369.694C506.232 368.376 505.978 367.121 504.779 366.628 504.434 366.479 504.062 366.399 503.686 366.393 502.672 366.393 501.84 367.069 501.297 368.389 500.57 370.158 501.025 371.47 502.533 372.09 502.806 372.203 503.099 372.26 503.394 372.259 504.402 372.103 505.396 371.865 506.365 371.549L507.589 372.053C506.657 374.596 506.131 377.269 506.029 379.976L502.227 379.976C499.494 378.53 498.362 376.339 496.03 376.339 493.472 376.339 492.03 377.97 492.03 380.97 492.03 383.97 493.472 385.602 496.03 385.602 498.356 385.602 499.487 383.423 502.203 381.976L506.028 381.976C506.125 384.698 506.652 387.387 507.589 389.945L506.365 390.448C505.396 390.132 504.402 389.895 503.394 389.739 503.099 389.737 502.806 389.795 502.533 389.908 501.025 390.528 500.57 391.84 501.297 393.608 501.84 394.929 502.672 395.605 503.686 395.605 504.062 395.599 504.434 395.518 504.779 395.369 505.978 394.876 506.233 393.622 507.114 392.303L508.358 391.792C509.508 394.302 511.05 396.614 512.926 398.64L510.246 401.321C507.29 402.231 504.94 401.482 503.291 403.131 501.483 404.94 501.617 407.113 503.738 409.234 504.598 410.233 505.821 410.847 507.135 410.94 508.171 410.905 509.148 410.451 509.841 409.681 511.486 408.037 510.745 405.697 511.642 402.753L514.339 400.055C516.357 401.926 518.657 403.467 521.156 404.619L520.652 405.843C519.334 406.724 518.08 406.979 517.587 408.178 516.967 409.686 517.579 410.932 519.348 411.659 519.828 411.87 520.344 411.985 520.867 411.999 521.861 412.008 522.745 411.37 523.049 410.424 523.544 409.22 522.823 408.153 522.508 406.589L523.001 405.391C525.569 406.339 528.272 406.873 531.007 406.974L531.008 410.745C529.561 413.478 527.37 414.61 527.37 416.942 527.37 419.5 529.002 420.942 532.002 420.942 535.002 420.942 536.633 419.5 536.633 416.942 536.633 414.616 534.455 413.485 533.008 410.769L533.007 406.974C535.712 406.874 538.384 406.35 540.926 405.421L541.407 406.589C541.092 408.153 540.371 409.22 540.867 410.424 541.17 411.37 542.054 412.008 543.048 411.999 543.572 411.985 544.088 411.87 544.568 411.659 546.336 410.932 546.949 409.686 546.328 408.177 545.835 406.979 544.581 406.724 543.263 405.843L542.773 404.654C545.304 403.497 547.634 401.942 549.673 400.048L552.353 402.727C553.263 405.683 552.514 408.032 554.162 409.681 554.856 410.451 555.833 410.905 556.868 410.939 558.183 410.847 559.406 410.233 560.266 409.234 562.387 407.113 562.521 404.94 560.713 403.131 559.068 401.486 556.727 402.227 553.783 401.329L551.086 398.633C552.951 396.617 554.486 394.318 555.634 391.823L556.802 392.303C557.683 393.622 557.937 394.876 559.136 395.369 559.482 395.518 559.853 395.598 560.229 395.605 561.243 395.605 562.075 394.929 562.618 393.608 563.346 391.84 562.891 390.528 561.383 389.908 561.109 389.795 560.817 389.737 560.521 389.739 559.513 389.895 558.52 390.132 557.55 390.448L556.404 389.977C557.35 387.406 557.881 384.702 557.978 381.965L561.777 381.964C564.51 383.411 565.641 385.602 567.973 385.602 570.531 385.602 571.973 383.97 571.973 380.97 571.973 377.97 570.531 376.339 567.973 376.339ZM559.247 369.46C559.395 369.091 559.616 368.757 559.897 368.478 560.002 368.429 560.114 368.4 560.229 368.393 560.324 368.393 560.554 368.628 560.768 369.15 561.131 370.031 560.939 370.11 560.622 370.24 560.59 370.254 560.555 370.26 560.521 370.259 560.162 370.212 559.809 370.126 559.469 370 559.332 369.957 559.185 369.911 559.03 369.865 559.107 369.725 559.179 369.589 559.247 369.46ZM554.901 356.187C555.028 354.819 555.11 354.141 555.577 353.674 555.901 353.288 556.366 353.046 556.869 353.001 557.645 353.117 558.352 353.515 558.852 354.12 559.426 354.609 559.819 355.276 559.968 356.015 559.979 356.179 560.015 356.679 559.298 357.396 558.831 357.863 558.153 357.944 556.786 358.071 556.146 358.13 555.42 358.198 554.626 358.346 554.774 357.552 554.842 356.826 554.901 356.187ZM542.716 352.335C542.854 351.999 542.927 351.999 543.048 351.999 543.31 352.013 543.568 352.078 543.807 352.188 544.688 352.551 544.609 352.742 544.479 353.059 544.199 353.341 543.865 353.562 543.497 353.709 543.367 353.778 543.232 353.849 543.092 353.926 543.046 353.773 543.001 353.627 542.957 353.487 542.799 353.123 542.717 352.731 542.716 352.335ZM529.37 344.999C529.37 344.3 529.37 342.999 532.002 342.999 534.633 342.999 534.633 344.3 534.633 344.999 534.633 345.659 534.212 346.197 533.334 347.254 532.924 347.748 532.458 348.309 532.002 348.974 531.545 348.309 531.08 347.748 530.669 347.254 529.792 346.197 529.37 345.659 529.37 344.999ZM519.437 353.059C519.306 352.742 519.227 352.551 520.109 352.188 520.347 352.077 520.605 352.013 520.868 351.999 520.988 351.999 521.061 351.999 521.199 352.335 521.198 352.731 521.117 353.123 520.958 353.487 520.915 353.627 520.869 353.773 520.823 353.926 520.683 353.849 520.548 353.778 520.419 353.709 520.05 353.562 519.716 353.341 519.437 353.059ZM504.705 357.396C504.211 356.901 503.291 355.981 505.152 354.12 505.652 353.515 506.359 353.117 507.136 353.001 507.638 353.046 508.102 353.288 508.427 353.674 508.894 354.141 508.976 354.819 509.103 356.187 509.162 356.826 509.229 357.552 509.378 358.346 508.584 358.198 507.858 358.13 507.218 358.071 505.851 357.944 505.172 357.862 504.705 357.396ZM504.446 370C504.106 370.126 503.754 370.213 503.394 370.259 503.36 370.26 503.325 370.254 503.293 370.24 503.081 370.153 502.983 370.066 502.972 370.031 502.935 369.726 502.996 369.418 503.147 369.15 503.362 368.628 503.592 368.393 503.686 368.393 503.801 368.4 503.914 368.429 504.018 368.478 504.299 368.757 504.521 369.092 504.668 369.46 504.737 369.589 504.808 369.725 504.885 369.865 504.73 369.911 504.583 369.957 504.446 370ZM498.285 382.303C497.228 383.18 496.691 383.602 496.03 383.602 495.331 383.602 494.03 383.602 494.03 380.97 494.03 378.339 495.331 378.339 496.03 378.339 496.691 378.339 497.228 378.76 498.285 379.638 498.779 380.048 499.34 380.514 500.006 380.97 499.34 381.427 498.779 381.893 498.285 382.303ZM504.668 392.538C504.521 392.906 504.299 393.24 504.018 393.52 503.914 393.569 503.801 393.597 503.686 393.605 503.592 393.605 503.362 393.37 503.147 392.848 502.996 392.58 502.935 392.271 502.972 391.966 502.983 391.932 503.081 391.845 503.293 391.757 503.325 391.744 503.36 391.737 503.395 391.739 503.754 391.785 504.107 391.872 504.446 391.998 504.583 392.041 504.73 392.087 504.885 392.133 504.808 392.273 504.737 392.408 504.668 392.538ZM509.103 405.754C508.976 407.121 508.894 407.8 508.427 408.267 508.102 408.653 507.638 408.895 507.135 408.94 506.359 408.824 505.652 408.425 505.152 407.82 503.291 405.959 504.211 405.039 504.705 404.545 505.172 404.078 505.851 403.996 507.218 403.869 507.858 403.81 508.584 403.743 509.378 403.595 509.229 404.388 509.162 405.114 509.103 405.754ZM521.199 409.663C521.061 409.999 520.988 409.999 520.867 409.999 520.605 409.984 520.347 409.92 520.109 409.809 519.227 409.447 519.306 409.255 519.437 408.938 519.716 408.657 520.05 408.436 520.419 408.289 520.548 408.22 520.683 408.148 520.823 408.072 520.869 408.224 520.915 408.371 520.958 408.51 521.117 408.874 521.198 409.267 521.199 409.663ZM534.633 416.942C534.633 417.641 534.633 418.942 532.002 418.942 529.37 418.942 529.37 417.641 529.37 416.942 529.37 416.281 529.792 415.744 530.669 414.687 531.08 414.193 531.546 413.632 532.002 412.966 532.458 413.632 532.924 414.193 533.334 414.687 534.212 415.744 534.633 416.281 534.633 416.942ZM544.479 408.938C544.609 409.255 544.688 409.447 543.807 409.81 543.568 409.92 543.31 409.984 543.048 409.999 542.927 409.999 542.854 409.999 542.716 409.663 542.717 409.267 542.799 408.874 542.957 408.51 543.001 408.371 543.046 408.224 543.092 408.072 543.232 408.148 543.367 408.22 543.497 408.289 543.865 408.436 544.199 408.657 544.479 408.938ZM532.003 404.999C518.748 404.999 508.003 394.254 508.003 380.999 508.003 367.744 518.748 356.999 532.003 356.999 545.258 356.999 556.003 367.744 556.003 380.999 555.988 394.248 545.251 404.984 532.003 404.999ZM559.298 404.545C560.015 405.261 559.979 405.761 559.968 405.926 559.819 406.664 559.426 407.332 558.852 407.82 558.352 408.425 557.645 408.824 556.868 408.939 556.366 408.895 555.901 408.653 555.577 408.267 555.11 407.8 555.028 407.121 554.901 405.754 554.842 405.114 554.774 404.388 554.626 403.595 555.42 403.743 556.146 403.81 556.786 403.869 558.153 403.996 558.831 404.078 559.298 404.545ZM560.521 391.739C560.555 391.737 560.59 391.744 560.622 391.757 560.939 391.888 561.131 391.967 560.768 392.848 560.554 393.37 560.324 393.605 560.229 393.605 560.114 393.598 560.002 393.569 559.897 393.52 559.616 393.24 559.395 392.906 559.247 392.538 559.179 392.408 559.107 392.273 559.031 392.133 559.185 392.087 559.332 392.041 559.469 391.998 559.809 391.872 560.162 391.785 560.521 391.739ZM567.973 383.602C567.313 383.602 566.776 383.18 565.719 382.303 565.224 381.893 564.664 381.427 563.998 380.97 564.663 380.514 565.224 380.048 565.719 379.638 566.776 378.76 567.313 378.339 567.973 378.339 568.672 378.339 569.973 378.339 569.973 380.97 569.973 383.602 568.672 383.602 567.973 383.602Z"/><path d="M532.003 377.282C529.95 377.282 528.286 378.946 528.286 380.999 528.286 383.052 529.95 384.716 532.003 384.716 534.056 384.716 535.72 383.052 535.72 380.999 535.72 380.013 535.328 379.068 534.631 378.37 533.935 377.672 532.989 377.281 532.003 377.282ZM533.217 382.213C532.547 382.883 531.459 382.883 530.789 382.213 530.119 381.542 530.119 380.455 530.789 379.785 531.46 379.114 532.547 379.114 533.217 379.785 533.539 380.107 533.72 380.543 533.72 380.999 533.721 381.454 533.54 381.892 533.217 382.213Z"/><path d="M542.516 387.795C540.463 387.795 538.799 389.459 538.799 391.512 538.799 393.565 540.463 395.229 542.516 395.229 544.569 395.229 546.233 393.565 546.233 391.512 546.233 390.526 545.841 389.581 545.145 388.884 544.448 388.185 543.502 387.794 542.516 387.795ZM543.73 392.726C543.06 393.396 541.973 393.396 541.302 392.726 540.632 392.056 540.632 390.968 541.302 390.298 541.973 389.627 543.06 389.627 543.73 390.298 544.401 390.96 544.408 392.04 543.746 392.71 543.741 392.716 543.736 392.721 543.73 392.726Z"/><path d="M521.49 366.769C519.437 366.769 517.773 368.433 517.773 370.486 517.773 372.539 519.437 374.203 521.49 374.203 523.543 374.203 525.207 372.538 525.207 370.486 525.207 369.5 524.815 368.554 524.118 367.857 523.422 367.159 522.476 366.767 521.49 366.769ZM522.704 371.7C522.033 372.37 520.946 372.37 520.276 371.7 519.605 371.029 519.605 369.942 520.276 369.271 520.946 368.601 522.034 368.601 522.704 369.272 523.026 369.594 523.207 370.03 523.207 370.486 523.208 370.941 523.027 371.378 522.704 371.7Z"/><path d="M521.49 387.795C519.437 387.795 517.773 389.459 517.773 391.512 517.773 393.565 519.437 395.229 521.49 395.229 523.543 395.229 525.207 393.565 525.207 391.512 525.207 390.526 524.815 389.581 524.118 388.884 523.422 388.185 522.476 387.794 521.49 387.795ZM522.704 392.726C522.033 393.396 520.946 393.396 520.276 392.726 519.605 392.055 519.605 390.968 520.276 390.298 520.946 389.628 522.034 389.628 522.704 390.298 523.026 390.62 523.207 391.057 523.207 391.512 523.208 391.968 523.027 392.405 522.704 392.726Z"/><path d="M542.516 366.769C540.463 366.769 538.799 368.433 538.799 370.486 538.799 372.538 540.463 374.203 542.516 374.203 544.569 374.203 546.233 372.539 546.233 370.486 546.233 369.5 545.841 368.554 545.145 367.857 544.448 367.159 543.502 366.767 542.516 366.769ZM543.73 371.7C543.06 372.37 541.973 372.37 541.302 371.7 540.632 371.029 540.632 369.942 541.302 369.271 541.973 368.601 543.06 368.601 543.73 369.271 544.401 369.933 544.408 371.013 543.746 371.684 543.741 371.689 543.735 371.694 543.73 371.7Z"/><path d="M532.003 365.955C533.371 365.955 534.481 364.845 534.481 363.477 534.481 362.108 533.372 360.999 532.003 360.999 530.634 360.999 529.525 362.108 529.525 363.477 529.525 364.134 529.786 364.764 530.251 365.229 530.715 365.694 531.346 365.956 532.003 365.955ZM531.665 363.139C531.852 362.952 532.154 362.952 532.341 363.139 532.528 363.325 532.528 363.628 532.341 363.815 532.154 364.001 531.852 364.001 531.665 363.815 531.479 363.628 531.479 363.326 531.665 363.139Z"/><path d="M551.277 379.247C550.309 378.279 548.74 378.279 547.773 379.247 546.805 380.214 546.805 381.783 547.773 382.751 548.74 383.719 550.309 383.719 551.277 382.751 551.277 382.751 551.277 382.751 551.277 382.751 552.245 381.789 552.25 380.225 551.288 379.257 551.284 379.254 551.281 379.25 551.277 379.247ZM549.863 381.337C549.676 381.523 549.374 381.523 549.187 381.337 549 381.15 549 380.848 549.187 380.661 549.373 380.474 549.676 380.474 549.863 380.661 550.049 380.848 550.049 381.15 549.863 381.337Z"/><path d="M532.003 396.043C530.634 396.043 529.525 397.152 529.525 398.521 529.525 399.889 530.634 400.999 532.003 400.999 533.371 400.999 534.481 399.889 534.481 398.521 534.481 397.864 534.22 397.233 533.755 396.769 533.291 396.303 532.66 396.042 532.003 396.043ZM532.341 398.859C532.154 399.045 531.852 399.045 531.665 398.859 531.479 398.672 531.479 398.37 531.665 398.183 531.849 397.994 532.152 397.991 532.341 398.176 532.529 398.36 532.533 398.663 532.348 398.852 532.346 398.854 532.343 398.856 532.341 398.859Z"/><path d="M514.481 378.521C513.112 378.521 512.003 379.63 512.003 380.999 512.003 382.367 513.112 383.477 514.481 383.477 515.849 383.477 516.959 382.367 516.959 380.999 516.959 380.342 516.698 379.711 516.233 379.247 515.769 378.781 515.138 378.52 514.481 378.521ZM514.819 381.337C514.632 381.523 514.33 381.523 514.143 381.337 513.957 381.15 513.957 380.848 514.143 380.661 514.327 380.472 514.63 380.469 514.819 380.653 515.008 380.838 515.011 381.14 514.826 381.329 514.824 381.332 514.821 381.334 514.819 381.337Z"/></g></svg>